<?xml version="1.0" encoding="utf-8"?>
<!-- Generator: Adobe Illustrator 25.1.0, SVG Export Plug-In . SVG Version: 6.00 Build 0)  -->
<svg version="1.1" xmlns="http://www.w3.org/2000/svg" xmlns:xlink="http://www.w3.org/1999/xlink" x="0px" y="0px"
	 viewBox="0 0 1133.86 339.7" style="enable-background:new 0 0 1133.86 339.7;" xml:space="preserve">
<style type="text/css">
	.st0{fill:#CB1517;}
	.st1{fill:#020203;}
	.st2{fill:#E62A37;}
</style>
<g id="Laag_3">
	<g>
		<g>
			<path class="st0" d="M137.49,171.71c0,0.45-0.1,0.87-0.3,1.24c-0.2,0.37-0.58,0.67-1.15,0.9c-0.57,0.22-1.33,0.41-2.3,0.55
				c-0.97,0.14-2.22,0.21-3.75,0.21c-1.99,0-3.61-0.08-4.86-0.26c-1.25-0.17-2.19-0.48-2.81-0.94c-0.62-0.45-1.14-0.96-1.54-1.53
				L80.2,116.72v55.16c0,0.4-0.12,0.78-0.34,1.15c-0.23,0.37-0.63,0.66-1.19,0.85c-0.57,0.2-1.32,0.37-2.26,0.51
				c-0.94,0.14-2.12,0.21-3.54,0.21c-1.37,0-2.53-0.07-3.5-0.21c-0.97-0.14-1.74-0.31-2.3-0.51c-0.57-0.2-0.97-0.48-1.19-0.85
				c-0.23-0.37-0.34-0.75-0.34-1.15V65.99c0-0.45,0.11-0.85,0.34-1.19c0.23-0.34,0.62-0.61,1.19-0.81c0.57-0.2,1.33-0.37,2.3-0.51
				c0.96-0.14,2.13-0.21,3.5-0.21c1.42,0,2.6,0.07,3.54,0.21c0.94,0.14,1.69,0.31,2.26,0.51c0.57,0.2,0.96,0.47,1.19,0.81
				c0.23,0.34,0.34,0.74,0.34,1.19v49.02l39.04-49.02c0.34-0.51,0.74-0.94,1.19-1.28c0.45-0.34,1.01-0.61,1.66-0.81
				c0.65-0.2,1.45-0.35,2.39-0.47c0.94-0.11,2.15-0.17,3.62-0.17c1.48,0,2.67,0.07,3.58,0.21c0.91,0.14,1.63,0.33,2.17,0.56
				c0.54,0.23,0.91,0.51,1.11,0.85c0.2,0.34,0.3,0.71,0.3,1.11c0,0.74-0.19,1.48-0.56,2.22c-0.37,0.74-1.06,1.76-2.09,3.07
				l-36.57,43.73l39.39,52.34c0.96,1.48,1.55,2.49,1.75,3.03C137.39,170.92,137.49,171.36,137.49,171.71"/>
			<path class="st0" d="M253.85,95.06c0,0.4-0.06,0.88-0.17,1.45c-0.11,0.57-0.31,1.28-0.59,2.13l-22.59,72.89
				c-0.17,0.63-0.44,1.14-0.81,1.54c-0.37,0.4-0.88,0.71-1.54,0.94c-0.65,0.23-1.55,0.38-2.68,0.47c-1.14,0.08-2.56,0.13-4.26,0.13
				c-1.76,0-3.24-0.06-4.43-0.17c-1.19-0.12-2.14-0.29-2.85-0.51c-0.71-0.23-1.24-0.54-1.58-0.94c-0.34-0.4-0.6-0.88-0.77-1.45
				l-16.11-55.67l-0.17-0.77l-0.17,0.77l-14.92,55.67c-0.17,0.63-0.44,1.14-0.81,1.54c-0.37,0.4-0.92,0.71-1.66,0.94
				c-0.74,0.23-1.69,0.38-2.86,0.47c-1.17,0.08-2.6,0.13-4.3,0.13c-1.76,0-3.2-0.06-4.3-0.17c-1.11-0.12-2.02-0.29-2.73-0.51
				c-0.71-0.23-1.24-0.54-1.58-0.94c-0.34-0.4-0.6-0.88-0.77-1.45l-22.42-72.89c-0.29-0.85-0.48-1.56-0.6-2.13
				c-0.12-0.57-0.17-1.05-0.17-1.45c0-0.51,0.11-0.93,0.34-1.23c0.23-0.31,0.61-0.57,1.15-0.77c0.54-0.2,1.26-0.32,2.17-0.38
				c0.91-0.05,2.02-0.08,3.33-0.08c1.59,0,2.87,0.04,3.84,0.13c0.96,0.09,1.7,0.23,2.22,0.43c0.51,0.2,0.88,0.48,1.11,0.85
				c0.23,0.37,0.43,0.81,0.6,1.32l18.5,63.26l0.17,0.77l0.17-0.77l16.97-63.26c0.11-0.51,0.3-0.95,0.55-1.32
				c0.26-0.37,0.64-0.65,1.15-0.85c0.51-0.2,1.21-0.34,2.09-0.43c0.88-0.08,2.03-0.13,3.45-0.13c1.36,0,2.49,0.04,3.37,0.13
				c0.88,0.09,1.58,0.23,2.09,0.43c0.51,0.2,0.88,0.47,1.11,0.81c0.23,0.34,0.4,0.74,0.51,1.19l18.33,63.43l0.17,0.77l0.08-0.77
				l18.25-63.26c0.11-0.51,0.3-0.95,0.55-1.32c0.26-0.37,0.65-0.65,1.19-0.85c0.54-0.2,1.28-0.34,2.21-0.43
				c0.94-0.08,2.15-0.13,3.62-0.13c1.36,0,2.46,0.03,3.28,0.08c0.82,0.06,1.48,0.2,1.96,0.43c0.48,0.23,0.82,0.48,1.02,0.77
				C253.75,94.16,253.85,94.55,253.85,95.06"/>
			<path class="st0" d="M313.19,137.01h-12.02c-3.87,0-7.22,0.33-10.06,0.98c-2.84,0.65-5.2,1.62-7.08,2.9
				c-1.87,1.28-3.25,2.81-4.13,4.6c-0.88,1.79-1.32,3.85-1.32,6.18c0,3.98,1.27,7.15,3.8,9.51c2.53,2.36,6.07,3.54,10.61,3.54
				c3.69,0,7.12-0.94,10.27-2.81c3.16-1.87,6.47-4.74,9.93-8.61V137.01z M327.17,172.05c0,0.68-0.23,1.19-0.68,1.54
				c-0.46,0.34-1.08,0.6-1.88,0.77c-0.8,0.17-1.96,0.26-3.5,0.26c-1.48,0-2.66-0.09-3.54-0.26c-0.88-0.17-1.52-0.43-1.92-0.77
				c-0.4-0.34-0.6-0.85-0.6-1.54v-7.67c-3.35,3.58-7.09,6.37-11.21,8.35c-4.12,1.99-8.48,2.99-13.09,2.99
				c-4.04,0-7.69-0.53-10.96-1.58c-3.27-1.05-6.05-2.57-8.35-4.56c-2.3-1.99-4.09-4.43-5.37-7.33c-1.28-2.9-1.92-6.2-1.92-9.89
				c0-4.32,0.88-8.07,2.64-11.26c1.76-3.18,4.29-5.82,7.59-7.93c3.3-2.1,7.33-3.68,12.11-4.73c4.78-1.05,10.15-1.58,16.11-1.58
				h10.57v-5.97c0-2.95-0.31-5.57-0.94-7.84c-0.63-2.27-1.64-4.16-3.03-5.67c-1.39-1.51-3.2-2.64-5.41-3.41
				c-2.22-0.77-4.94-1.15-8.18-1.15c-3.47,0-6.58,0.41-9.33,1.24c-2.76,0.82-5.17,1.73-7.25,2.73c-2.08,0.99-3.81,1.9-5.2,2.73
				c-1.39,0.82-2.43,1.24-3.11,1.24c-0.45,0-0.85-0.11-1.19-0.34c-0.34-0.23-0.64-0.57-0.89-1.02c-0.26-0.45-0.44-1.04-0.55-1.75
				c-0.12-0.71-0.17-1.49-0.17-2.34c0-1.42,0.1-2.54,0.3-3.37c0.2-0.82,0.68-1.61,1.45-2.34c0.77-0.74,2.09-1.61,3.96-2.6
				c1.87-0.99,4.03-1.9,6.48-2.73c2.44-0.82,5.11-1.5,8.01-2.05c2.9-0.54,5.82-0.81,8.78-0.81c5.51,0,10.2,0.63,14.07,1.88
				c3.86,1.25,6.99,3.08,9.38,5.5c2.39,2.42,4.12,5.41,5.2,8.99c1.08,3.58,1.62,7.76,1.62,12.53V172.05z"/>
			<path class="st0" d="M396.82,137.01H384.8c-3.87,0-7.22,0.33-10.06,0.98c-2.84,0.65-5.2,1.62-7.07,2.9
				c-1.88,1.28-3.26,2.81-4.14,4.6c-0.88,1.79-1.32,3.85-1.32,6.18c0,3.98,1.27,7.15,3.8,9.51c2.53,2.36,6.06,3.54,10.61,3.54
				c3.69,0,7.12-0.94,10.27-2.81c3.15-1.87,6.46-4.74,9.93-8.61V137.01z M410.8,172.05c0,0.68-0.23,1.19-0.68,1.54
				c-0.46,0.34-1.08,0.6-1.88,0.77c-0.8,0.17-1.96,0.26-3.5,0.26c-1.48,0-2.66-0.09-3.54-0.26c-0.88-0.17-1.52-0.43-1.92-0.77
				c-0.4-0.34-0.6-0.85-0.6-1.54v-7.67c-3.35,3.58-7.09,6.37-11.21,8.35c-4.12,1.99-8.48,2.99-13.09,2.99
				c-4.04,0-7.69-0.53-10.96-1.58c-3.27-1.05-6.05-2.57-8.35-4.56c-2.3-1.99-4.09-4.43-5.37-7.33c-1.28-2.9-1.92-6.2-1.92-9.89
				c0-4.32,0.88-8.07,2.64-11.26c1.76-3.18,4.29-5.82,7.59-7.93c3.3-2.1,7.33-3.68,12.1-4.73c4.78-1.05,10.15-1.58,16.11-1.58h10.57
				v-5.97c0-2.95-0.31-5.57-0.94-7.84c-0.63-2.27-1.63-4.16-3.03-5.67c-1.39-1.51-3.2-2.64-5.42-3.41
				c-2.22-0.77-4.94-1.15-8.18-1.15c-3.47,0-6.58,0.41-9.33,1.24c-2.76,0.82-5.17,1.73-7.25,2.73c-2.08,0.99-3.81,1.9-5.2,2.73
				c-1.39,0.82-2.43,1.24-3.11,1.24c-0.45,0-0.85-0.11-1.19-0.34c-0.34-0.23-0.64-0.57-0.89-1.02c-0.26-0.45-0.44-1.04-0.56-1.75
				c-0.12-0.71-0.17-1.49-0.17-2.34c0-1.42,0.1-2.54,0.3-3.37c0.2-0.82,0.68-1.61,1.45-2.34c0.77-0.74,2.09-1.61,3.96-2.6
				c1.87-0.99,4.04-1.9,6.48-2.73c2.44-0.82,5.12-1.5,8.01-2.05c2.9-0.54,5.82-0.81,8.78-0.81c5.51,0,10.2,0.63,14.07,1.88
				c3.86,1.25,6.99,3.08,9.38,5.5c2.39,2.42,4.12,5.41,5.2,8.99c1.08,3.58,1.62,7.76,1.62,12.53V172.05z"/>
			<path class="st0" d="M450.7,171.96c0,0.46-0.11,0.84-0.34,1.15c-0.23,0.31-0.6,0.58-1.11,0.81c-0.51,0.23-1.22,0.4-2.13,0.51
				s-2.07,0.17-3.49,0.17c-1.37,0-2.5-0.06-3.41-0.17c-0.91-0.11-1.64-0.29-2.18-0.51c-0.54-0.23-0.91-0.5-1.11-0.81
				c-0.2-0.31-0.3-0.69-0.3-1.15V95.23c0-0.4,0.1-0.77,0.3-1.11c0.2-0.34,0.57-0.62,1.11-0.85c0.54-0.22,1.27-0.39,2.18-0.51
				c0.91-0.12,2.04-0.17,3.41-0.17c1.42,0,2.58,0.06,3.49,0.17c0.91,0.11,1.62,0.28,2.13,0.51c0.51,0.23,0.88,0.51,1.11,0.85
				c0.23,0.34,0.34,0.71,0.34,1.11V171.96z M452.32,69.32c0,3.3-0.63,5.54-1.88,6.73c-1.25,1.19-3.55,1.79-6.91,1.79
				c-3.3,0-5.55-0.58-6.78-1.75c-1.22-1.16-1.83-3.37-1.83-6.61c0-3.29,0.63-5.54,1.87-6.73c1.25-1.19,3.55-1.79,6.91-1.79
				c3.3,0,5.56,0.58,6.78,1.75C451.7,63.88,452.32,66.08,452.32,69.32"/>
			<path d="M573.4,124.35c-1.63-3.81-3.52-7.27-5.68-10.37c-2.16-3.09-4.61-5.57-7.33-7.44c-2.73-1.86-5.81-2.95-9.24-3.25
				c-3.43-0.3-7.23,0.44-11.4,2.21c-3.85,1.64-6.87,3.73-9.06,6.27c-2.19,2.54-3.66,5.43-4.39,8.68c-0.73,3.25-0.81,6.76-0.23,10.53
				c0.58,3.77,1.72,7.67,3.44,11.69c1.65,3.87,3.55,7.35,5.71,10.45c2.16,3.09,4.61,5.56,7.35,7.38c2.74,1.83,5.83,2.89,9.26,3.19
				c3.43,0.3,7.23-0.44,11.4-2.22c3.8-1.62,6.8-3.7,9.02-6.25c2.22-2.55,3.7-5.44,4.45-8.66c0.74-3.22,0.82-6.71,0.21-10.47
				C576.3,132.34,575.13,128.42,573.4,124.35 M586.44,117.77c2.45,5.76,3.95,11.37,4.49,16.85c0.55,5.48,0.06,10.62-1.45,15.4
				c-1.52,4.79-4.12,9.12-7.8,13.01c-3.69,3.89-8.51,7.1-14.47,9.64c-5.8,2.47-11.23,3.77-16.28,3.88
				c-5.05,0.11-9.71-0.87-13.99-2.93c-4.28-2.07-8.13-5.15-11.54-9.26c-3.42-4.1-6.4-9.14-8.93-15.1
				c-2.45-5.75-3.96-11.36-4.53-16.84c-0.57-5.47-0.1-10.6,1.42-15.38c1.51-4.79,4.1-9.1,7.78-12.96c3.67-3.85,8.51-7.05,14.53-9.62
				c5.8-2.47,11.23-3.77,16.28-3.88c5.05-0.11,9.71,0.86,13.99,2.93c4.28,2.07,8.14,5.15,11.58,9.24
				C580.94,106.86,583.92,111.86,586.44,117.77"/>
			<path d="M494,69.32c0,3.3-0.63,5.54-1.88,6.73c-1.25,1.19-3.55,1.79-6.91,1.79c-3.29,0-5.54-0.58-6.73-1.75
				c-1.19-1.16-1.79-3.37-1.79-6.61c0-3.3,0.61-5.54,1.83-6.74s3.51-1.79,6.86-1.79c3.35,0,5.63,0.58,6.82,1.75
				C493.41,63.88,494,66.08,494,69.32 M492.38,175.37c0,5.68-0.43,10.27-1.28,13.77c-0.85,3.49-2.19,6.44-4.01,8.82
				c-1.82,2.39-4.15,4.19-6.99,5.41c-2.84,1.22-6.28,1.83-10.31,1.83c-1.82,0-3.37-0.12-4.65-0.34c-1.28-0.23-2.26-0.48-2.94-0.77
				c-0.68-0.28-1.15-0.61-1.41-0.98c-0.26-0.37-0.44-0.8-0.56-1.28c-0.11-0.48-0.18-0.98-0.21-1.49c-0.03-0.51-0.04-1.14-0.04-1.87
				c0-1.02,0.04-1.91,0.13-2.64c0.09-0.74,0.23-1.34,0.43-1.79c0.2-0.45,0.43-0.78,0.68-0.98c0.26-0.2,0.58-0.3,0.98-0.3
				c0.34,0,1.01,0.07,2,0.21c0.99,0.14,2.14,0.21,3.45,0.21c1.87,0,3.48-0.29,4.82-0.85c1.33-0.57,2.43-1.49,3.28-2.77
				c0.85-1.28,1.48-2.94,1.88-4.99c0.4-2.04,0.6-5.14,0.6-9.29V95.23c0-0.4,0.11-0.77,0.34-1.11c0.22-0.34,0.61-0.62,1.15-0.85
				c0.54-0.23,1.27-0.4,2.18-0.51c0.91-0.11,2.05-0.17,3.41-0.17s2.5,0.06,3.41,0.17s1.63,0.29,2.18,0.51
				c0.54,0.23,0.92,0.51,1.15,0.85c0.23,0.34,0.34,0.71,0.34,1.11V175.37z"/>
			<path d="M676.61,171.96c0,0.46-0.11,0.84-0.34,1.15c-0.23,0.31-0.6,0.58-1.11,0.81s-1.22,0.4-2.13,0.51
				c-0.91,0.11-2.05,0.17-3.41,0.17c-1.42,0-2.58-0.06-3.49-0.17c-0.91-0.11-1.62-0.29-2.13-0.51c-0.51-0.23-0.88-0.5-1.11-0.81
				c-0.23-0.31-0.34-0.69-0.34-1.15v-44.93c0-4.38-0.34-7.9-1.02-10.57c-0.68-2.67-1.68-4.97-2.98-6.91c-1.31-1.93-3-3.41-5.07-4.43
				c-2.07-1.02-4.48-1.53-7.2-1.53c-3.52,0-7.05,1.25-10.57,3.75c-3.53,2.5-7.22,6.17-11.08,11v53.62c0,0.46-0.12,0.84-0.34,1.15
				c-0.23,0.31-0.6,0.58-1.11,0.81c-0.51,0.23-1.22,0.4-2.13,0.51c-0.91,0.11-2.07,0.17-3.49,0.17c-1.36,0-2.5-0.06-3.41-0.17
				c-0.91-0.11-1.63-0.29-2.17-0.51c-0.54-0.23-0.91-0.5-1.11-0.81c-0.2-0.31-0.3-0.69-0.3-1.15V95.23c0-0.45,0.08-0.84,0.26-1.15
				c0.17-0.31,0.51-0.6,1.03-0.85c0.51-0.25,1.16-0.42,1.96-0.51c0.8-0.08,1.85-0.13,3.15-0.13c1.25,0,2.29,0.04,3.11,0.13
				c0.82,0.09,1.46,0.26,1.92,0.51c0.45,0.26,0.78,0.54,0.98,0.85c0.2,0.31,0.3,0.7,0.3,1.15v10.14c4.32-4.83,8.62-8.37,12.91-10.61
				c4.29-2.24,8.63-3.37,13-3.37c5.12,0,9.42,0.87,12.92,2.6c3.5,1.73,6.32,4.05,8.48,6.95c2.16,2.9,3.71,6.29,4.65,10.19
				c0.94,3.89,1.41,8.57,1.41,14.02V171.96z"/>
			<path d="M744.39,118.93c0-5.23-1.44-9.31-4.31-12.23c-2.87-2.93-6.95-4.39-12.23-4.39c-2.73,0-5.1,0.46-7.12,1.37
				c-2.02,0.91-3.69,2.16-5.03,3.75c-1.34,1.59-2.33,3.43-2.98,5.5s-0.98,4.25-0.98,6.52c0,5.06,1.43,9.04,4.31,11.93
				c2.87,2.9,6.89,4.35,12.06,4.35c2.79,0,5.2-0.44,7.25-1.32c2.05-0.88,3.74-2.1,5.07-3.67c1.33-1.56,2.33-3.37,2.98-5.42
				C744.06,123.28,744.39,121.15,744.39,118.93 M751.46,179.72c0-3.3-1.35-5.84-4.05-7.63c-2.7-1.79-6.36-2.74-10.96-2.86
				l-19.86-0.68c-1.82,1.42-3.31,2.77-4.48,4.05c-1.17,1.28-2.09,2.5-2.77,3.67c-0.68,1.17-1.15,2.31-1.41,3.45
				c-0.25,1.14-0.38,2.3-0.38,3.5c0,3.69,1.87,6.49,5.63,8.4c3.75,1.91,8.98,2.86,15.69,2.86c4.26,0,7.83-0.41,10.7-1.23
				c2.87-0.83,5.19-1.92,6.95-3.28c1.76-1.36,3.03-2.93,3.8-4.69C751.08,183.5,751.46,181.65,751.46,179.72 M766.38,98.73
				c0,1.99-0.27,3.42-0.81,4.3c-0.54,0.88-1.24,1.32-2.09,1.32h-11c1.99,2.05,3.38,4.31,4.18,6.78c0.8,2.47,1.19,5.05,1.19,7.72
				c0,4.43-0.71,8.35-2.13,11.76c-1.42,3.41-3.45,6.3-6.09,8.65c-2.65,2.36-5.79,4.17-9.42,5.41c-3.64,1.25-7.67,1.88-12.11,1.88
				c-3.13,0-6.09-0.41-8.91-1.24c-2.81-0.82-4.99-1.86-6.52-3.11c-1.02,1.03-1.86,2.19-2.52,3.5c-0.65,1.31-0.98,2.81-0.98,4.52
				c0,1.99,0.92,3.64,2.77,4.95c1.84,1.31,4.3,2.02,7.37,2.13l20.04,0.85c3.81,0.11,7.3,0.64,10.48,1.57
				c3.18,0.94,5.94,2.28,8.27,4.01c2.33,1.73,4.15,3.87,5.45,6.39c1.31,2.53,1.96,5.47,1.96,8.82c0,3.52-0.74,6.88-2.22,10.06
				c-1.48,3.18-3.74,5.98-6.78,8.39c-3.04,2.42-6.92,4.32-11.64,5.72c-4.72,1.39-10.29,2.09-16.71,2.09
				c-6.2,0-11.47-0.53-15.82-1.58c-4.35-1.05-7.91-2.49-10.7-4.31c-2.79-1.82-4.81-3.99-6.05-6.52c-1.25-2.53-1.88-5.27-1.88-8.23
				c0-1.87,0.23-3.69,0.68-5.45c0.45-1.76,1.15-3.44,2.09-5.03c0.94-1.59,2.1-3.11,3.49-4.56c1.39-1.45,3-2.88,4.82-4.3
				c-2.78-1.42-4.84-3.21-6.18-5.37c-1.34-2.16-2-4.49-2-6.99c0-3.46,0.71-6.56,2.13-9.29c1.42-2.73,3.18-5.17,5.29-7.33
				c-1.76-2.1-3.16-4.48-4.18-7.12c-1.02-2.64-1.54-5.84-1.54-9.59c0-4.38,0.74-8.3,2.22-11.77c1.48-3.47,3.53-6.39,6.14-8.78
				c2.61-2.39,5.76-4.22,9.42-5.5c3.67-1.28,7.66-1.92,11.98-1.92c2.33,0,4.51,0.13,6.52,0.38c2.02,0.26,3.91,0.61,5.67,1.07h23.19
				c0.97,0,1.69,0.47,2.17,1.41C766.14,95.36,766.38,96.8,766.38,98.73"/>
			<path d="M834.32,126.1c0.17-7.39-1.47-13.18-4.93-17.39c-3.46-4.21-8.59-6.31-15.4-6.31c-3.49,0-6.55,0.65-9.18,1.96
				c-2.63,1.31-4.83,3.04-6.61,5.2c-1.77,2.16-3.14,4.67-4.12,7.54c-0.97,2.87-1.51,5.87-1.63,9H834.32z M848.48,130.27
				c0,2.22-0.56,3.79-1.67,4.73c-1.11,0.94-2.38,1.41-3.81,1.41h-50.53c0,4.26,0.43,8.1,1.28,11.51c0.86,3.41,2.28,6.34,4.28,8.78
				c2,2.44,4.6,4.32,7.79,5.63c3.2,1.31,7.11,1.96,11.74,1.96c3.66,0,6.91-0.3,9.77-0.89c2.85-0.6,5.32-1.27,7.41-2.01
				c2.08-0.74,3.8-1.41,5.14-2c1.34-0.6,2.36-0.9,3.05-0.9c0.4,0,0.75,0.1,1.07,0.3c0.31,0.2,0.56,0.5,0.73,0.89
				c0.17,0.4,0.3,0.95,0.38,1.66c0.09,0.71,0.13,1.58,0.13,2.6c0,0.74-0.03,1.38-0.09,1.92c-0.06,0.54-0.13,1.02-0.21,1.45
				c-0.08,0.43-0.23,0.81-0.43,1.15c-0.2,0.34-0.45,0.67-0.77,0.98c-0.31,0.31-1.24,0.82-2.77,1.54c-1.54,0.71-3.53,1.41-5.97,2.09
				c-2.44,0.68-5.27,1.29-8.48,1.83c-3.21,0.55-6.64,0.81-10.27,0.81c-6.31,0-11.84-0.88-16.58-2.64
				c-4.75-1.76-8.74-4.38-11.98-7.84c-3.24-3.46-5.68-7.81-7.33-13.04c-1.65-5.23-2.47-11.31-2.47-18.24
				c0-6.59,0.85-12.52,2.56-17.77c1.7-5.26,4.17-9.72,7.38-13.39c3.21-3.66,7.09-6.48,11.64-8.44c4.54-1.96,9.63-2.94,15.26-2.94
				c6.02,0,11.15,0.97,15.39,2.9s7.72,4.53,10.44,7.8c2.73,3.27,4.73,7.11,6.01,11.51c1.28,4.41,1.92,9.11,1.92,14.11V130.27z"/>
			<path d="M935.95,171.96c0,0.46-0.12,0.84-0.34,1.15c-0.23,0.31-0.6,0.58-1.11,0.81c-0.51,0.23-1.22,0.4-2.13,0.51
				c-0.91,0.11-2.05,0.17-3.41,0.17c-1.42,0-2.59-0.06-3.5-0.17c-0.91-0.11-1.62-0.29-2.13-0.51c-0.51-0.23-0.88-0.5-1.11-0.81
				c-0.23-0.31-0.34-0.69-0.34-1.15v-44.93c0-4.38-0.34-7.9-1.02-10.57c-0.68-2.67-1.68-4.97-2.98-6.91c-1.31-1.93-3-3.41-5.07-4.43
				c-2.07-1.02-4.48-1.53-7.2-1.53c-3.52,0-7.05,1.25-10.57,3.75s-7.22,6.17-11.08,11v53.62c0,0.46-0.12,0.84-0.34,1.15
				c-0.23,0.31-0.59,0.58-1.11,0.81c-0.51,0.23-1.22,0.4-2.13,0.51c-0.91,0.11-2.08,0.17-3.5,0.17c-1.36,0-2.5-0.06-3.41-0.17
				c-0.91-0.11-1.63-0.29-2.17-0.51c-0.54-0.23-0.91-0.5-1.11-0.81c-0.2-0.31-0.3-0.69-0.3-1.15V95.23c0-0.45,0.09-0.84,0.26-1.15
				c0.17-0.31,0.51-0.6,1.02-0.85c0.51-0.25,1.16-0.42,1.96-0.51c0.8-0.08,1.84-0.13,3.15-0.13c1.25,0,2.29,0.04,3.11,0.13
				c0.82,0.09,1.46,0.26,1.92,0.51c0.45,0.26,0.78,0.54,0.98,0.85c0.2,0.31,0.3,0.7,0.3,1.15v10.14c4.32-4.83,8.62-8.37,12.91-10.61
				c4.29-2.24,8.62-3.37,13-3.37c5.11,0,9.42,0.87,12.91,2.6c3.5,1.73,6.32,4.05,8.48,6.95c2.16,2.9,3.71,6.29,4.65,10.19
				c0.94,3.89,1.41,8.57,1.41,14.02V171.96z"/>
			<path d="M1009.77,151.07c0,3.92-0.73,7.42-2.17,10.49c-1.45,3.07-3.51,5.66-6.18,7.76c-2.67,2.1-5.85,3.69-9.55,4.78
				c-3.7,1.08-7.76,1.62-12.19,1.62c-2.73,0-5.33-0.21-7.8-0.64c-2.47-0.43-4.68-0.97-6.65-1.62c-1.96-0.65-3.62-1.33-4.99-2.05
				c-1.36-0.71-2.36-1.35-2.98-1.92c-0.63-0.57-1.08-1.36-1.36-2.39c-0.29-1.02-0.43-2.42-0.43-4.18c0-1.08,0.06-1.99,0.17-2.73
				c0.11-0.74,0.26-1.33,0.43-1.79c0.17-0.46,0.41-0.78,0.73-0.98c0.31-0.2,0.67-0.3,1.06-0.3c0.63,0,1.55,0.38,2.77,1.15
				c1.22,0.77,2.73,1.6,4.52,2.52c1.79,0.91,3.91,1.75,6.35,2.51c2.44,0.77,5.26,1.15,8.44,1.15c2.39,0,4.55-0.25,6.48-0.77
				c1.93-0.51,3.61-1.27,5.03-2.26c1.42-0.99,2.51-2.26,3.28-3.79c0.77-1.54,1.15-3.35,1.15-5.46c0-2.16-0.55-3.98-1.66-5.46
				c-1.11-1.48-2.57-2.79-4.39-3.92c-1.82-1.14-3.87-2.15-6.14-3.03c-2.27-0.88-4.62-1.8-7.03-2.77c-2.42-0.97-4.78-2.06-7.08-3.28
				c-2.3-1.22-4.36-2.71-6.18-4.48c-1.82-1.76-3.28-3.86-4.39-6.31c-1.11-2.44-1.66-5.37-1.66-8.78c0-3.01,0.58-5.9,1.75-8.66
				c1.17-2.75,2.91-5.17,5.24-7.24c2.33-2.07,5.24-3.74,8.74-4.99c3.5-1.25,7.57-1.88,12.23-1.88c2.05,0,4.09,0.17,6.14,0.51
				c2.05,0.34,3.89,0.77,5.54,1.28c1.65,0.51,3.05,1.06,4.22,1.66c1.17,0.6,2.05,1.12,2.64,1.58c0.6,0.46,0.99,0.85,1.19,1.19
				c0.2,0.34,0.34,0.72,0.43,1.15c0.09,0.43,0.17,0.95,0.26,1.57c0.08,0.63,0.13,1.4,0.13,2.3c0,0.97-0.04,1.81-0.13,2.51
				c-0.09,0.71-0.23,1.3-0.43,1.75c-0.2,0.46-0.44,0.78-0.72,0.98c-0.29,0.2-0.6,0.3-0.94,0.3c-0.51,0-1.25-0.31-2.22-0.94
				c-0.96-0.63-2.21-1.29-3.75-2c-1.54-0.71-3.34-1.38-5.41-2c-2.07-0.63-4.45-0.94-7.12-0.94c-2.39,0-4.49,0.27-6.31,0.81
				c-1.82,0.54-3.31,1.31-4.47,2.31c-1.17,0.99-2.05,2.17-2.64,3.54c-0.6,1.36-0.9,2.84-0.9,4.43c0,2.22,0.57,4.08,1.7,5.58
				c1.14,1.51,2.61,2.83,4.43,3.97c1.82,1.14,3.89,2.16,6.22,3.07c2.33,0.91,4.7,1.85,7.12,2.81c2.41,0.97,4.8,2.05,7.16,3.24
				c2.36,1.19,4.45,2.64,6.27,4.35c1.82,1.7,3.28,3.75,4.39,6.14C1009.21,144.93,1009.77,147.78,1009.77,151.07"/>
		</g>
		<rect x="61.12" y="219.63" class="st1" width="979.38" height="0.85"/>
		<g>
			<path class="st2" d="M1033.96,220.06c0,11.59,9.4,20.99,20.99,20.99c11.59,0,20.99-9.4,20.99-20.99
				c0-11.59-9.4-20.99-20.99-20.99C1043.35,199.07,1033.96,208.47,1033.96,220.06"/>
		</g>
	</g>
</g>
<g id="Laag_1">
</g>
</svg>
